<svg xmlns="http://www.w3.org/2000/svg" width="1600" height="760" viewBox="0 0 1600 760">
  <defs>
    <linearGradient id="bg" x1="0" y1="0" x2="1" y2="1"><stop offset="0" stop-color="#0a2e51"/><stop offset=".58" stop-color="#15588b"/><stop offset="1" stop-color="#2b438d"/></linearGradient>
    <linearGradient id="title" x1="0" y1="0" x2="1" y2="0"><stop offset="0" stop-color="#81efff"/><stop offset=".62" stop-color="#56c7ff"/><stop offset="1" stop-color="#a493ff"/></linearGradient>
    <linearGradient id="flow" x1="0" y1="0" x2="1" y2="0"><stop offset="0" stop-color="#44e2ff" stop-opacity="0"/><stop offset=".48" stop-color="#44e2ff"/><stop offset="1" stop-color="#a28aff" stop-opacity=".25"/></linearGradient>
    <filter id="glow"><feGaussianBlur stdDeviation="7" result="b"/><feMerge><feMergeNode in="b"/><feMergeNode in="SourceGraphic"/></feMerge></filter>
    <style>.cn{font-family:"PingFang SC","Noto Sans CJK SC","Microsoft YaHei",sans-serif}.ey{font-size:18px;font-weight:700;letter-spacing:3px;fill:#c7efff}.h1{font-size:70px;font-weight:760;fill:#fff}.h2{font-size:70px;font-weight:760;fill:url(#title)}.lead{font-size:23px;fill:#d6e9f8}.tag{font-size:16px;fill:#dbf4ff}.note{font-size:18px;font-weight:650;fill:#f3fbff}.small{font-size:14px;fill:#b8d8eb}</style>
  </defs>
  <rect width="1600" height="760" rx="28" fill="url(#bg)"/>
  <circle cx="1460" cy="80" r="290" fill="#48cfff" opacity=".11"/><circle cx="1380" cy="720" r="330" fill="#7e68db" opacity=".18"/>
  <g opacity=".24" stroke="#7fe8ff" fill="none"><path d="M890 160 H1080 L1150 235 H1500"/><path d="M820 245 H1030 L1120 335 H1530"/><path d="M900 330 H1190 L1270 410 H1510"/><path d="M850 450 H1070 L1170 550 H1530"/></g>
  <g opacity=".55" fill="#74e7ff"><circle cx="1080" cy="160" r="5"/><circle cx="1150" cy="235" r="5"/><circle cx="1030" cy="245" r="5"/><circle cx="1120" cy="335" r="5"/><circle cx="1190" cy="330" r="5"/><circle cx="1270" cy="410" r="5"/></g>
  <g transform="translate(1030 235)"><rect x="0" y="0" width="235" height="235" rx="28" fill="#123c65" stroke="#7ae4ff" stroke-width="2"/><rect x="38" y="38" width="159" height="159" rx="18" fill="#185b8c" stroke="#71dfff"/><rect x="78" y="78" width="79" height="79" rx="10" fill="#4bcff5" opacity=".78" filter="url(#glow)"/><path d="M-100 45 H0M-130 100 H0M-100 160 H0M235 55 H345M235 120 H385M235 175 H340" stroke="url(#flow)" stroke-width="7" stroke-linecap="round" filter="url(#glow)"/></g>
  <g transform="translate(1060 180)" opacity=".85"><rect x="0" y="0" width="175" height="55" rx="12" fill="#155b87" stroke="#6edfff"/><rect x="35" y="-74" width="175" height="55" rx="12" fill="#235e9c" stroke="#80c4ff"/><rect x="70" y="-148" width="175" height="55" rx="12" fill="#414d99" stroke="#a28cff"/></g>
  <path d="M760 630 C990 530 1190 690 1560 525" fill="none" stroke="url(#flow)" stroke-width="8" filter="url(#glow)"/>
  <g transform="translate(92 105)">
    <text class="cn ey" x="0" y="0">TEAM RECRUITING · 边端智能基础设施</text>
    <text class="cn h1" x="0" y="108">边端一体机</text>
    <text class="cn h2" x="0" y="198">大模型推理优化方向招募</text>
    <text class="cn lead" x="0" y="263"><tspan x="0">面向 Agent + LLM 边端智能系统，探索大模型从云端向端侧演进的关键技术突破，</tspan><tspan x="0" dy="38">打造下一代边端 AI 基础设施。</tspan></text>
    <g transform="translate(0 350)"><rect width="130" height="44" rx="22" fill="#123e63" stroke="#5ecff4"/><text class="cn tag" x="65" y="28" text-anchor="middle">Agent / LLM</text><rect x="146" width="160" height="44" rx="22" fill="#123e63" stroke="#5ecff4"/><text class="cn tag" x="226" y="28" text-anchor="middle">Inference Infra</text><rect x="322" width="156" height="44" rx="22" fill="#2875ad" stroke="#b5f5ff" stroke-width="2.5"/><text class="cn tag" x="400" y="28" text-anchor="middle" font-weight="800">vLLM / SGLang</text><rect x="494" width="102" height="44" rx="22" fill="#123e63" stroke="#5ecff4"/><text class="cn tag" x="545" y="28" text-anchor="middle">Kernel</text><rect x="612" width="124" height="44" rx="22" fill="#123e63" stroke="#5ecff4"/><text class="cn tag" x="674" y="28" text-anchor="middle">软硬件协同</text></g>
    <circle cx="9" cy="457" r="8" fill="#59e3ff" filter="url(#glow)"/><text class="cn note" x="32" y="464">岗位持续开放 · 有经验或 0 基础转方向都欢迎</text>
  </g>
</svg>
